# xmcd CD database file
#
# Track frame offsets:
#	150
#	19754
#	40657
#	67739
#	86777
#
# Disc length: 1379 seconds
#
# Revision: 0
# Processed by: cddbd v1.5.2PL0 Copyright (c) Steve Scherf et al.
# Submitted via: CDex 1.70beta2
#
DISCID=32056105
DTITLE=the arrows - the arrows
DYEAR=2008
DGENRE=Jazz
TTITLE0=next time
TTITLE1=pilgrimage
TTITLE2=in the words(of satan)
TTITLE3=make me an instrument
TTITLE4=song for you
EXTD=YEAR: 2008
EXTT0=
EXTT1=
EXTT2=
EXTT3=
EXTT4=
PLAYORDER=
